<?xml version="1.0" encoding="utf-8"?>
<!-- Generator: Adobe Illustrator 22.0.1, SVG Export Plug-In . SVG Version: 6.00 Build 0)  -->
<svg version="1.1" id="Layer_1" xmlns="http://www.w3.org/2000/svg" xmlns:xlink="http://www.w3.org/1999/xlink" x="0px" y="0px"
	 viewBox="0 0 24 24" style="enable-background:new 0 0 24 24;" xml:space="preserve">
<style type="text/css">
	.st0{fill:#5E6E82;}
</style>
<path class="st0" d="M9.7,6.7L11,5.4V11c0,0.6,0.4,1,1,1s1-0.4,1-1V5.4l1.3,1.3c0.4,0.4,1,0.4,1.4,0c0.4-0.4,0.4-1,0-1.4l-3-3
	c-0.1-0.1-0.2-0.2-0.3-0.2c-0.2-0.1-0.5-0.1-0.8,0c-0.1,0-0.2,0.1-0.3,0.2l-3,3c-0.4,0.4-0.4,1,0,1.4C8.6,7.1,9.3,7.1,9.7,6.7z
	 M5.5,17.8c1.5,3.5,5.7,5.2,9.2,3.6c2.3-1,3.8-3.1,4.1-5.5c2.1-0.5,3.5-2.7,3-4.8C21.4,9.3,19.8,8,18,8c-0.6,0-1,0.4-1,1s0.4,1,1,1
	c1.1,0,2,0.9,2,2s-0.9,2-2,2c-0.6,0-1,0.4-1,1c0,2.8-2.2,5-5,5c-2.1,0-4-1.4-4.7-3.4C7.1,16.3,6.8,16,6.5,16
	c-1.6-0.3-2.7-1.9-2.4-3.5c0.2-1.1,1-2,2.2-2.3C6.8,10,7.1,9.4,6.9,8.9C6.8,8.4,6.3,8,5.7,8.2C3,8.9,1.5,11.6,2.2,14.3
	C2.6,16,3.9,17.3,5.5,17.8z"/>
</svg>
